# xmcd CD database file
#
# Track frame offsets:
#	150
#	14030
#	25806
#	38281
#	57602
#	70701
#	79110
#	88571
#	96922
#	110914
#	124459
#	135086
#	146814
#	159647
#	173518
#	183481
#
# Disc length: 2660 seconds
#
# Revision: 0
# Processed by: cddbd v1.5.2PL0 Copyright (c) Steve Scherf et al.
# Submitted via: CDex 1.51
#
DISCID=d80a6210
DTITLE=Buzão do Forró - A Viagem do Sucesso
DYEAR=2007
DGENRE=Country
TTITLE0=Rumo a Goiânia
TTITLE1=Fogo e Paixão
TTITLE2=Pout Pourri - Eu tive um Amor - Seresteiro da Noite
TTITLE3=Estou Apaixonado
TTITLE4=Quero Ver Você Feliz
TTITLE5=Pão de Mel
TTITLE6=Você Vai Ver
TTITLE7=No Dia que Saí de Casa
TTITLE8=Agora é Gaia
TTITLE9=Pout Pourri - Entre Tapas e Beijos - Pense em Mim
TTITLE10=Pout Pourri - Paz na Cama - Festa na Roça
TTITLE11=Ela é Demais
TTITLE12=Pareço um Menino
TTITLE13=Pout Pourri - Manhã de Setembro - Amanhã Talvez
TTITLE14=É o Amor
TTITLE15=Volta pra Mim
EXTD=YEAR: 2007
EXTT0=
EXTT1=
EXTT2=
EXTT3=
EXTT4=
EXTT5=
EXTT6=
EXTT7=
EXTT8=
EXTT9=
EXTT10=
EXTT11=
EXTT12=
EXTT13=
EXTT14=
EXTT15=
PLAYORDER=
